<?xml version="1.0" encoding="UTF-8" standalone="no"?>
<!-- Created with Inkscape (http://www.inkscape.org/) -->

<svg
   width="160.60782mm"
   height="369.07846mm"
   viewBox="0 0 160.60782 369.07846"
   version="1.1"
   id="svg1017"
   inkscape:version="1.1.2 (0a00cf5339, 2022-02-04)"
   sodipodi:docname="pcb2t.svg"
   xmlns:inkscape="http://www.inkscape.org/namespaces/inkscape"
   xmlns:sodipodi="http://sodipodi.sourceforge.net/DTD/sodipodi-0.dtd"
   xmlns="http://www.w3.org/2000/svg"
   xmlns:svg="http://www.w3.org/2000/svg">
  <sodipodi:namedview
     id="namedview1019"
     pagecolor="#505050"
     bordercolor="#eeeeee"
     borderopacity="1"
     inkscape:pageshadow="0"
     inkscape:pageopacity="0"
     inkscape:pagecheckerboard="0"
     inkscape:document-units="mm"
     showgrid="false"
     fit-margin-top="0"
     fit-margin-left="0"
     fit-margin-right="0"
     fit-margin-bottom="0"
     inkscape:zoom="1.3826038"
     inkscape:cx="107.40604"
     inkscape:cy="867.92759"
     inkscape:window-width="1920"
     inkscape:window-height="1011"
     inkscape:window-x="0"
     inkscape:window-y="0"
     inkscape:window-maximized="1"
     inkscape:current-layer="layer1" />
  <defs
     id="defs1014">
    <linearGradient
       id="d"
       x1="2478.8999"
       x2="2878.8999"
       y1="494.09"
       y2="-33.905998"
       gradientUnits="userSpaceOnUse"
       spreadMethod="reflect">
      <stop
         stop-color="#8e4d31"
         offset="0"
         id="stop9" />
      <stop
         stop-color="#f5a276"
         offset=".3363"
         id="stop11" />
      <stop
         stop-color="#854c2e"
         offset="1"
         id="stop13" />
    </linearGradient>
  </defs>
  <g
     inkscape:label="Layer 1"
     inkscape:groupmode="layer"
     id="layer1"
     transform="translate(6.4366329,83.370912)">
    <g
       transform="matrix(0.39644506,0,0,-0.39644506,-597.8058,-31.289911)"
       id="g784">
      <g
         transform="translate(-903.62,3.4219e-5)"
         id="g782">
        <path
           transform="scale(1,-1)"
           d="m 2396.8,-129.87 h 402.12 V 798.1 H 2396.8 Z"
           fill="url(#d)"
           stroke="#000000"
           stroke-width="3"
           id="path664"
           style="fill:none;stroke:none" />
        <g
           transform="matrix(1,0,0,-1,-1.4382,-668.22)"
           stroke="#feb98a"
           stroke-linecap="round"
           stroke-linejoin="round"
           stroke-width="21.738"
           id="g670" />
        <g
           transform="translate(31.922,-80)"
           stroke="#82623b"
           id="g774">
          <g
             fill="#ef9c70"
             fill-rule="evenodd"
             stroke="#868253"
             stroke-width="4"
             id="g772">
            <path
               d="m 2663.2,184.27 c -1.6132,0 -3.2232,-0.59818 -4.45,-1.825 -2.4536,-2.4536 -2.4536,-6.4714 0,-8.925 1.2268,-1.2268 2.836,-1.825 4.45,-1.825 0.6838,0 1.3742,0.10404 2.025,0.325 l 24.025,-24.05 c -0.4623,-1.3879 -0.449,-2.9288 0.15,-4.375 0.61,-1.4725 1.7169,-2.5775 3.05,-3.225 V 39.67 c -2.9457,-1.4554 -4.3239,-4.9993 -3.05,-8.075 0.996,-2.4044 3.3203,-3.8542 5.775,-3.875 0.6716,-0.0057 1.3803,0.08192 2.05,0.3 L 2721.25,3.97 c -0.4621,-1.388 -0.4484,-2.9285 0.15,-4.375 0.6094,-1.4728 1.7167,-2.5777 3.05,-3.225 l -0.05,-84.725 c -2.0741,-1.0286 -3.5,-3.1606 -3.5,-5.625 10e-5,-3.4692 2.8051,-6.297 6.275,-6.3 3.4699,-0.003 6.325,2.805 6.325,6.275 0,2.464 -1.435,4.6117 -3.5,5.65 l 0.075,84.75 c 2.9087,1.4671 4.2405,4.9413 2.975,8 -1.2806,3.0952 -4.7511,4.6391 -7.875,3.55 l -24,23.975 c 0.4922,1.4078 0.4895,2.9913 -0.125,4.475 -0.5994,1.4471 -1.6758,2.563 -2.975,3.225 V 140.4 c 2.9084,1.4681 4.2416,4.9418 2.975,8 -1.2819,3.0947 -4.7515,4.6401 -7.875,3.55 l -24.025,24.025 c 0.74,2.1979 0.2467,4.7284 -1.5,6.475 -1.2268,1.2268 -2.8368,1.825 -4.45,1.825 z"
               id="path672"
               style="fill:#00ced1;stroke:#daa520" />
            <path
               d="m 2423.2836,184.09893 c -3.4699,0 -6.325,-2.85506 -6.325,-6.325 0,-2.45391 1.4403,-4.56624 3.5,-5.6 v -52.7 c -0.6136,-0.29771 -1.1916,-0.69163 -1.7,-1.2 -1.7466,-1.7466 -2.265,-4.2771 -1.525,-6.475 l -8,-8 c -0.2192,0.0737 -0.4503,0.12606 -0.675,0.175 l -0.15,0.025 c -1.9863,0.38338 -4.1165,-0.19148 -5.65,-1.725 -2.4536,-2.45362 -2.4536,-6.44638 0,-8.9 0.1534,-0.15335 0.3099,-0.29072 0.475,-0.425 0.013,-0.01118 0.037,-0.01394 0.05,-0.025 0.1514,-0.12093 0.2902,-0.24496 0.45,-0.35 0.2261,-0.15299 0.4794,-0.27674 0.725,-0.4 v -20.75 c -2.0633,-1.04167 -3.5,-3.19344 -3.5,-5.65 0,-3.46994 2.8551,-6.275 6.325,-6.275 3.4699,0 6.3,2.80506 6.3,6.275 0,2.46445 -1.4259,4.61208 -3.5,5.65 v 20.725 c 2.076,1.02814 3.5,3.1592 3.5,5.625 0,0.74518 -0.1347,1.45962 -0.375,2.125 l 7.975,7.975 c 0.6592,-0.23302 1.363,-0.375 2.1,-0.375 3.47,0 6.3,2.80506 6.3,6.275 0,1.95184 -0.8954,3.71442 -2.3,4.875 -0.036,0.0307 -0.088,0.0453 -0.125,0.075 -0.163,0.12839 -0.3248,0.23783 -0.5,0.35 -0.1906,0.12565 -0.3746,0.24723 -0.575,0.35 v 52.725 c 2.076,1.02814 3.5,3.1592 3.5,5.625 0,3.46994 -2.83,6.325 -6.3,6.325 z"
               id="path674"
               style="fill:#00ced1;stroke:#daa520" />
            <path
               d="m 2471.2836,184.09893 c -3.4699,0 -6.325,-2.85506 -6.325,-6.325 0,-2.45391 1.4403,-4.56624 3.5,-5.6 v -20.7 c -0.6136,-0.29771 -1.1916,-0.69163 -1.7,-1.2 -2.4536,-2.45362 -2.4536,-6.44639 0,-8.9 0.5084,-0.50837 1.0834,-0.90158 1.7,-1.2 v -100.55 c -0.6123,-0.29755 -1.1926,-0.66754 -1.7,-1.175 -1.8402,-1.84022 -2.3201,-4.55014 -1.4,-6.825 0.8888,-2.4053 3.2141,-4.125 5.925,-4.125 0.737,0 1.4408,0.14198 2.1,0.375 l 7.85,-7.85 c -0.4882,-1.432 -0.4446,-2.9918 0.125,-4.4 0.5556,-1.50381 1.6774,-2.736 3.1,-3.45 v -20.75 c -2.0633,-1.04167 -3.5,-3.19344 -3.5,-5.65 0,-3.46994 2.8551,-6.275 6.325,-6.275 3.4699,0 6.3,2.80506 6.3,6.275 -10e-5,2.46445 -1.4259,4.61208 -3.5,5.65 v 20.725 c 2.076,1.02814 3.5,3.1592 3.5,5.625 0,0.86749 -0.1793,1.69555 -0.5,2.45 -0.01,0.01738 -0.018,0.03266 -0.025,0.05 -0.01,0.01734 -0.014,0.05073 -0.025,0.075 -0.3067,0.75829 -0.7616,1.48659 -1.375,2.1 -1.7466,1.7466 -4.2771,2.24002 -6.475,1.5 l -7.9,7.9 c 0.2002,0.61114 0.3,1.24765 0.3,1.925 0,0.86749 -0.1793,1.69555 -0.5,2.45 -0.01,0.01738 -0.018,0.03266 -0.025,0.05 -0.01,0.01734 -0.014,0.05073 -0.025,0.075 -0.3067,0.75829 -0.7616,1.48659 -1.375,2.1 -0.474,0.47399 -1.0079,0.83414 -1.575,1.125 v 100.65 c 0.5644,0.29156 1.1008,0.67577 1.575,1.15 1.7467,1.74659 2.24,4.2771 1.5,6.475 l 8.025,8.025 c 0.6573,-0.22096 1.3412,-0.35 2.025,-0.35 1.6139,0 3.2232,0.62319 4.45,1.85 2.4537,2.45361 2.4537,6.44638 0,8.9 -2.4537,2.45362 -6.4464,2.45363 -8.9,0 -1.7466,-1.7466 -2.265,-4.2771 -1.525,-6.475 l -7.15,-7.15 v 19.5 c 2.076,1.02814 3.5,3.1592 3.5,5.625 0,3.46994 -2.83,6.325 -6.3,6.325 z"
               id="path676"
               style="fill:#00ced1;stroke:#daa520" />
            <path
               d="m 2583.2836,184.09893 c -3.4699,0 -6.325,-2.85506 -6.325,-6.325 0,-2.45391 1.4403,-4.56624 3.5,-5.6 v -20.55 c -0.6123,-0.29755 -1.1926,-0.66754 -1.7,-1.175 -1.8402,-1.84021 -2.3201,-4.55014 -1.4,-6.825 0.8888,-2.4053 3.2141,-4.125 5.925,-4.125 0.737,0 1.4408,0.14198 2.1,0.375 l 23.875,-23.9 c -0.4623,-1.38786 -0.449,-2.92878 0.15,-4.375 0.61,-1.47254 1.7169,-2.57753 3.05,-3.225 v -100.7 c -2.7704,-1.36881 -4.1544,-4.58819 -3.25,-7.525 0.4745,-1.73512 1.6685,-3.18129 3.25,-3.975 v -100.75 c -2.0633,-1.04167 -3.5,-3.19344 -3.5,-5.65 0,-3.46994 2.8551,-6.275 6.325,-6.275 3.4699,0 6.3,2.80506 6.3,6.275 0,2.46445 -1.4259,4.61208 -3.5,5.65 v 99.75 l 23.175,-23.2 c -0.4623,-1.38786 -0.449,-2.92878 0.15,-4.375 0.61,-1.47254 1.7169,-2.57753 3.05,-3.225 v -68.75 c -2.058,-1.03437 -3.5,-3.14738 -3.5,-5.6 0,-3.46994 2.8551,-6.3 6.325,-6.3 3.4699,0 6.3,2.83006 6.3,6.3 0,2.46445 -1.4259,4.59622 -3.5,5.625 v 68.75 c 2.9084,1.46812 4.2416,4.94185 2.975,8 -1.2819,3.09471 -4.7515,4.64014 -7.875,3.55 l -23.9,23.875 c 0.2047,0.61732 0.3,1.26473 0.3,1.95 0,0.43374 -0.041,0.86519 -0.125,1.275 0,0.01716 -0.022,0.03285 -0.025,0.05 -0.01,0.03204 0.01,0.06814 0,0.1 -0.079,0.41016 -0.209,0.79927 -0.375,1.2 -0.5994,1.44714 -1.6758,2.56295 -2.975,3.225 v 100.775 c 2.9084,1.46812 4.2416,4.94185 2.975,8 -1.2819,3.09471 -4.7515,4.64014 -7.875,3.55 l -23.9,23.9 c 0.2002,0.61114 0.3,1.24765 0.3,1.925 0,0.86749 -0.1793,1.69555 -0.5,2.45 -0.01,0.0174 -0.018,0.0327 -0.025,0.05 -0.01,0.0173 -0.014,0.0507 -0.025,0.075 -0.3067,0.75829 -0.7616,1.4866 -1.375,2.1 -0.474,0.474 -1.0079,0.83414 -1.575,1.125 v 20.575 c 2.076,1.02814 3.5,3.1592 3.5,5.625 0,3.46994 -2.83,6.325 -6.3,6.325 z"
               id="path678"
               style="fill:#00ced1;stroke:#daa520" />
            <path
               d="m 2615.2836,184.09893 c -3.4699,0 -6.325,-2.85506 -6.325,-6.325 0,-2.45391 1.4403,-4.56624 3.5,-5.6 v -20.575 c -0.5845,-0.29367 -1.1381,-0.66305 -1.625,-1.15 -1.0796,-1.07958 -1.6704,-2.46033 -1.8,-3.875 -0.033,-0.2604 -0.075,-0.53102 -0.075,-0.8 0,-3.46994 2.8551,-6.275 6.325,-6.275 0.7534,0 1.4784,0.132 2.15,0.375 l 23.925,-23.925 c -0.4521,-1.38059 -0.4467,-2.90949 0.15,-4.35 0.6103,-1.47329 1.716,-2.57767 3.05,-3.225 v -100.7 c -2.9574,-1.44908 -4.3269,-4.99219 -3.05,-8.075 0.996,-2.40435 3.3204,-3.85417 5.775,-3.875 0.6744,-0.00573 1.3351,0.10498 2,0.325 l 24.075,-24.1 c -0.4482,-1.38268 -0.4455,-2.91073 0.15,-4.35 0.6096,-1.47354 1.7158,-2.57782 3.05,-3.225 l -0.05,-84.7 c -2.0811,-1.02282 -3.5,-3.17373 -3.5,-5.65 0,-0.73495 0.1181,-1.4425 0.35,-2.1 l -23.975,-23.975 c -0.2681,0.0903 -0.549,0.17173 -0.825,0.225 -0.4098,0.0836 -0.8412,0.15 -1.275,0.15 -3.4699,0 -6.325,-2.83006 -6.325,-6.3 0,-0.0431 -9e-4,-0.0821 0,-0.125 9e-4,-0.0429 0,-0.0835 0,-0.125 0,-2.45391 1.4403,-4.56624 3.5,-5.6 v -68.6 c -2.1117,-1.0243 -3.575,-3.18295 -3.575,-5.675 0,-3.46994 2.8301,-6.3 6.3,-6.3 3.4699,0 6.275,2.83006 6.275,6.3 0,2.42502 -1.3636,4.54394 -3.375,5.6 v 68.65 c 1.6124,0.79852 2.8328,2.28019 3.3,4.05 0.3674,1.24502 0.3402,2.56698 -0.075,3.8 l 24.025,24.025 0.075,-0.025 0.05,-0.025 c 0.039,-0.0123 0.086,-0.0134 0.125,-0.025 0.1405,-0.0397 0.2807,-0.0701 0.425,-0.1 0.4499,-0.0988 0.9179,-0.15 1.375,-0.15 1.614,0 3.1982,0.59819 4.425,1.825 2.4536,2.45362 2.4536,6.47139 0,8.925 -0.46,0.46006 -0.9767,0.81246 -1.525,1.1 -0.065,0.0355 -0.1336,0.0668 -0.2,0.1 l 0.075,84.75 c 2.9077,1.4686 4.2647,4.94315 3,8 -1.2778,3.08862 -4.7791,4.65045 -7.9,3.575 l -24,24 c 0.4762,1.39636 0.4829,2.95738 -0.125,4.425 -0.5963,1.43959 -1.6849,2.56174 -2.975,3.225 v 100.775 c 2.9047,1.46966 4.2409,4.94368 2.975,8 -1.2823,3.0956 -4.7757,4.66697 -7.9,3.575 l -23.925,23.95 c 0.1457,0.46411 0.217,0.94659 0.25,1.45 0.013,0.13404 0.021,0.26551 0.025,0.4 0,0.21687 0,0.43857 -0.025,0.65 -0.1005,1.46503 -0.6837,2.90868 -1.8,4.025 -0.5004,0.5004 -1.0723,0.8787 -1.675,1.175 v 20.525 c 2.076,1.02814 3.5,3.1592 3.5,5.625 0,3.46994 -2.83,6.325 -6.3,6.325 z"
               id="path680"
               style="fill:#00ced1;stroke:#daa520" />
            <path
               d="m 2519.2086,168.12393 c -1.6132,0 -3.2232,-0.62318 -4.45,-1.85 -1.7466,-1.7466 -2.265,-4.2771 -1.525,-6.475 l -7.85,-7.85 c -0.6577,0.23187 -1.3649,0.375 -2.1,0.375 -2.6953,0 -5,-1.71638 -5.9,-4.1 0,-0.0103 -0.021,-0.0147 -0.025,-0.025 -0.037,-0.0999 -0.068,-0.19783 -0.1,-0.3 -0.766,-2.21006 -0.2606,-4.76444 1.5,-6.525 0.5084,-0.50837 1.0834,-0.90158 1.7,-1.2 v -68.55 c -0.057,-0.02779 -0.1185,-0.04538 -0.175,-0.075 -0.1828,-0.09585 -0.3755,-0.18498 -0.55,-0.3 -0.349,-0.23002 -0.6683,-0.4933 -0.975,-0.8 -2.4536,-2.45362 -2.4536,-6.47138 0,-8.925 1.2268,-1.22681 2.836,-1.825 4.45,-1.825 0.4549,0 0.9057,0.05213 1.35,0.15 0.1527,0.03148 0.3015,0.05762 0.45,0.1 0.05,0.01499 0.1,0.03372 0.15,0.05 l 0.075,0.025 8,-8 c -0.751,-2.2031 -0.2275,-4.74745 1.525,-6.5 0.5084,-0.50837 1.0834,-0.90158 1.7,-1.2 v -68.7 c -1.408,-0.70769 -2.5147,-1.91605 -3.075,-3.4 0,-0.01032 -0.021,-0.01466 -0.025,-0.025 -0.037,-0.09986 -0.068,-0.19783 -0.1,-0.3 -0.4584,-1.32253 -0.4714,-2.77423 -0.025,-4.1 l -24,-24 c -2.1971,0.73834 -4.7293,0.2207 -6.475,-1.525 -2.4536,-2.45362 -2.4536,-6.44638 0,-8.9 1.2268,-1.22682 2.836,-1.85 4.45,-1.85 1.614,0 3.2232,0.62319 4.45,1.85 1.7467,1.7466 2.24,4.2771 1.5,6.475 l 24.025,24.025 c 0.6573,-0.22096 1.3412,-0.35 2.025,-0.35 1.6139,0 3.2232,0.62318 4.45,1.85 0.4942,0.49419 0.8799,1.05568 1.175,1.65 0.088,0.1623 0.1507,0.32961 0.225,0.5 0.01,0.01734 0.018,0.03262 0.025,0.05 0.3207,0.75445 0.5,1.58251 0.5,2.45 0,2.46445 -1.4259,4.59622 -3.5,5.625 v 68.725 l 0.05,0.025 0.05,0.025 c 0.1654,0.08919 0.3414,0.19487 0.5,0.3 0.04,0.02672 0.085,0.04725 0.125,0.075 0.1318,0.09186 0.2489,0.19687 0.375,0.3 0.032,0.02624 0.068,0.04803 0.1,0.075 0.1305,0.11104 0.2516,0.22661 0.375,0.35 1.1819,1.14912 1.925,2.73287 1.925,4.5 0,3.46994 -2.83,6.3 -6.3,6.3 -0.4337,0 -0.8652,-0.06635 -1.275,-0.15 -0.276,-0.05327 -0.5569,-0.13471 -0.825,-0.225 l -7.975,7.975 c 0.2352,0.65918 0.375,1.36299 0.375,2.1 0,2.46445 -1.4259,4.59622 -3.5,5.625 v 68.575 c 0.5644,0.29156 1.1008,0.67577 1.575,1.15 0.4942,0.49419 0.8799,1.05568 1.175,1.65 0.076,0.13903 0.1346,0.27999 0.2,0.425 0.017,0.0419 0.034,0.0828 0.05,0.125 0.3207,0.75445 0.5,1.58251 0.5,2.45 0,0.67834 -0.099,1.33808 -0.3,1.95 l 7.9,7.9 c 0.6573,-0.22096 1.3412,-0.35 2.025,-0.35 1.6139,0 3.2232,0.62319 4.45,1.85 2.4537,2.45361 2.4537,6.44638 0,8.9 -1.2268,1.22682 -2.8368,1.85 -4.45,1.85 z"
               id="path682"
               style="fill:#00ced1;stroke:#daa520" />
            <path
               d="m 2727.3,152.32 c -3.4699,0 -6.325,-2.8301 -6.325,-6.3 0,-2.4539 1.4403,-4.5821 3.5,-5.625 V 39.615 c -2.058,-1.0344 -3.5,-3.1474 -3.5,-5.6 0,-3.4699 2.8551,-6.3 6.325,-6.3 3.4699,0 6.3,2.8301 6.3,6.3 0,2.4644 -1.4259,4.5962 -3.5,5.625 v 100.72 c 2.076,1.0373 3.5,3.1842 3.5,5.65 0,3.4699 -2.83,6.3 -6.3,6.3 z"
               id="path684"
               style="fill:#00ced1;stroke:#daa520" />
            <path
               d="m 2535.2,136.22 c -3.4699,0 -6.3,-2.8551 -6.3,-6.325 0,-3.4699 2.8301,-6.3 6.3,-6.3 2.4644,0 4.5962,1.4259 5.625,3.5 h 21.85 c 1.0288,-2.0741 3.1606,-3.5 5.625,-3.5 3.47,0 6.3,2.8301 6.3,6.3 0,3.4699 -2.83,6.325 -6.3,6.325 -2.4526,0 -4.5656,-1.442 -5.6,-3.5 h -21.9 c -1.0344,2.058 -3.1474,3.5 -5.6,3.5 z"
               id="path686"
               style="fill:#00ced1;stroke:#daa520" />
            <path
               d="m 2439.2836,104.32393 c -3.4699,0 -6.325,-2.83006 -6.325,-6.3 0,-2.45391 1.4403,-4.58209 3.5,-5.625 v -20.775 c -2.058,-1.03437 -3.5,-3.14738 -3.5,-5.6 0,-0.7435 0.1358,-1.4609 0.375,-2.125 l -23.925,-23.925 c -3.1237,1.08534 -6.6191,-0.48262 -7.9,-3.575 -1.2623,-3.04767 0.062,-6.4981 2.95,-7.975 v -68.75 c -2.9457,-1.45539 -4.3239,-4.99928 -3.05,-8.075 0.996,-2.40435 3.3203,-3.85417 5.775,-3.875 0.6716,-0.0057 1.3803,0.08192 2.05,0.3 l 24.025,-24.05 c -0.1527,-0.45846 -0.2548,-0.94071 -0.3,-1.425 -0.2135,-1.84687 0.3877,-3.76272 1.8,-5.175 0.5084,-0.50837 1.0834,-0.90158 1.7,-1.2 v -148.55 c -1.5727,-0.79046 -2.7714,-2.20159 -3.25,-3.925 -0.3888,-1.25888 -0.3662,-2.62313 0.05,-3.875 l -8.025,-8.025 c -2.1971,0.73834 -4.7293,0.2207 -6.475,-1.525 -2.4536,-2.45362 -2.4536,-6.44639 0,-8.9 0.5084,-0.50837 1.0834,-0.90158 1.7,-1.2 v -53.475 c -0.4324,-0.24414 -0.8568,-0.55682 -1.225,-0.925 -1.4643,-1.46434 -1.9227,-3.53209 -1.425,-5.4 l -9.15,-9.15 c -1.8679,0.49767 -3.9607,0.0143 -5.425,-1.45 -2.1858,-2.18581 -2.1858,-5.7142 0,-7.9 0.2732,-0.27322 0.5895,-0.52008 0.9,-0.725 0.1034,-0.0704 0.2169,-0.11151 0.325,-0.175 v -0.025 -22.325 c -1.6571,-0.97286 -2.775,-2.76579 -2.775,-4.825 0,-3.0912 2.5088,-5.6 5.6,-5.6 3.0912,0 5.6,2.5088 5.6,5.6 0,2.0718 -1.1261,3.8814 -2.8,4.85 v 22.3 c 1.6739,0.9686 2.8,2.7782 2.8,4.85 0,0.5427 -0.081,1.05362 -0.225,1.55 l 9.075,9.075 c 0.4913,-0.14107 1.0135,-0.225 1.55,-0.225 3.0912,0 5.6,2.5088 5.6,5.6 0,2.0718 -1.1261,3.8814 -2.8,4.85 v 53.575 c 0.5644,0.29156 1.1008,0.67577 1.575,1.15 1.7467,1.74659 2.24,4.2771 1.5,6.475 l 8.025,8.025 c 0.6613,-0.22396 1.3615,-0.35 2.05,-0.35 1.6139,0 3.1982,0.62319 4.425,1.85 0.4942,0.49419 0.8799,1.05568 1.175,1.65 0.088,0.1623 0.1507,0.32961 0.225,0.5 0.01,0.0173 0.018,0.0326 0.025,0.05 0.3207,0.75445 0.5,1.58251 0.5,2.45 0,2.46445 -1.4259,4.59622 -3.5,5.625 v 148.575 c 0.5644,0.29156 1.1008,0.67577 1.575,1.15 0.7984,0.79833 1.3212,1.75593 1.6,2.775 0.047,0.15298 0.09,0.31862 0.125,0.475 0.01,0.04176 0.018,0.08311 0.025,0.125 0.2112,1.03106 0.1665,2.11794 -0.175,3.175 l 23.95,23.95 c 0.6573,-0.22096 1.3412,-0.35 2.025,-0.35 1.6139,0 3.2232,0.62318 4.45,1.85 2.4537,2.45362 2.4537,6.44638 0,8.9 -2.4537,2.45362 -6.4464,2.45362 -8.9,0 -1.7466,-1.7466 -2.265,-4.2771 -1.525,-6.475 l -23.875,-23.875 c -1.3133,0.47652 -2.7744,0.51385 -4.175,0.025 l -24,23.975 c 0.4922,1.40783 0.4895,2.9913 -0.125,4.475 -0.5994,1.44714 -1.6758,2.56295 -2.975,3.225 v 68.75 c 1.334,0.64732 2.4648,1.75171 3.075,3.225 0.6025,1.45458 0.6134,3.00602 0.15,4.4 l 24.025,24.025 0.075,-0.025 0.05,-0.025 c 0.039,-0.01235 0.086,-0.01342 0.125,-0.025 0.1409,-0.03962 0.2804,-0.07018 0.425,-0.1 0.4499,-0.09879 0.9179,-0.15 1.375,-0.15 1.614,0 3.1982,0.59818 4.425,1.825 2.3002,2.30027 2.4377,5.95495 0.425,8.425 -0.023,0.02796 -0.052,0.04743 -0.075,0.075 -0.1152,0.1367 -0.2214,0.29635 -0.35,0.425 -0.3121,0.31207 -0.6443,0.56731 -1,0.8 -0.2291,0.1539 -0.4761,0.27654 -0.725,0.4 v 20.725 c 2.076,1.03726 3.5,3.1842 3.5,5.65 0,3.46994 -2.83,6.3 -6.3,6.3 z"
               id="path688"
               style="fill:#00ced1;stroke:#daa520" />
            <path
               d="m 2535.2,104.22 c -3.4699,0 -6.3,-2.8551 -6.3,-6.325 0,-3.4699 2.8301,-6.3 6.3,-6.3 2.4644,0 4.5962,1.4259 5.625,3.5 h 21.85 c 1.0288,-2.0741 3.1606,-3.5 5.625,-3.5 3.47,0 6.3,2.8301 6.3,6.3 0,3.4699 -2.83,6.325 -6.3,6.325 -2.4526,0 -4.5656,-1.442 -5.6,-3.5 h -21.9 c -1.0344,2.058 -3.1474,3.5 -5.6,3.5 z"
               id="path690"
               style="fill:#00ced1;stroke:#daa520" />
            <path
               d="m 2599.2836,72.32393 c -3.4699,0 -6.325,-2.83006 -6.325,-6.3 0,-2.45391 1.4403,-4.58209 3.5,-5.625 v -20.775 c -2.058,-1.03437 -3.5,-3.14738 -3.5,-5.6 0,-0.7435 0.1358,-1.4609 0.375,-2.125 l -8.125,-8.125 c -0.6076,0.19622 -1.2546,0.325 -1.925,0.325 -1.563,0 -2.9941,-0.574 -4.1,-1.525 -0.2941,-0.20635 -0.5875,-0.43746 -0.85,-0.7 -2.4537,-2.45362 -2.4537,-6.44638 0,-8.9 0.6192,-0.61919 1.3548,-1.06743 2.125,-1.375 v -116.15 c -1.3285,-0.65176 -2.4428,-1.75934 -3.05,-3.225 -0.5997,-1.44793 -0.614,-3.01089 -0.15,-4.4 l -8.025,-8.025 c -2.1971,0.73834 -4.7293,0.2207 -6.475,-1.525 -2.4536,-2.45362 -2.4536,-6.44639 0,-8.9 1.2268,-1.22681 2.836,-1.85 4.45,-1.85 1.614,0 3.2232,0.62319 4.45,1.85 1.7467,1.74659 2.24,4.2771 1.5,6.475 l 8,8 c 0.6999,-0.24618 1.414,-0.35608 2.125,-0.35 2.4547,0.0208 4.779,1.49565 5.775,3.9 1.2666,3.05815 -0.067,6.55688 -2.975,8.025 v 116.65 c 0.249,0.1537 0.5195,0.30827 0.75,0.5 1.6704,1.13006 2.75,3.03868 2.75,5.2 0,0.73701 -0.1398,1.44082 -0.375,2.1 l 8.125,8.15 0.075,-0.025 0.05,-0.025 c 0.041,-0.01286 0.084,-0.01298 0.125,-0.025 0.1409,-0.03962 0.2804,-0.07018 0.425,-0.1 0.4499,-0.09879 0.9179,-0.15 1.375,-0.15 1.614,-8e-6 3.1982,0.59819 4.425,1.825 2.3002,2.30026 2.4377,5.95494 0.425,8.425 -0.023,0.02796 -0.052,0.04743 -0.075,0.075 -0.1152,0.1367 -0.2214,0.29635 -0.35,0.425 -0.3121,0.31207 -0.6443,0.56731 -1,0.8 -0.2291,0.1539 -0.4761,0.27654 -0.725,0.4 v 20.725 c 2.076,1.03726 3.5,3.1842 3.5,5.65 0,3.46994 -2.83,6.3 -6.3,6.3 z"
               id="path692"
               style="stroke:#daa520;fill:#00ced1" />
            <path
               d="m 2535.1836,72.22393 c -2.3856,0 -4.4773,-1.35772 -5.55,-3.325 -0.195,-0.35769 -0.3515,-0.7304 -0.475,-1.125 -0.1853,-0.5919 -0.275,-1.22438 -0.275,-1.875 0,-3.46994 2.8301,-6.3 6.3,-6.3 0.2169,0 0.4388,0.0033 0.65,0.025 2.1888,0.22454 4.0367,1.58342 4.975,3.475 h 21.85 l 0.1,-0.2 c 1.0634,-1.96728 3.1394,-3.3 5.525,-3.3 0.2169,0 0.4386,0.0033 0.65,0.025 2.1143,0.21666 3.9248,1.48656 4.9,3.275 0.195,0.35769 0.3515,0.7304 0.475,1.125 0.1853,0.5919 0.275,1.22438 0.275,1.875 0,0.65062 -0.09,1.2831 -0.275,1.875 -0.8028,2.5649 -3.2056,4.45 -6.025,4.45 -0.2169,0 -0.4388,-0.02834 -0.65,-0.05 -2.1773,-0.22336 -4.0071,-1.57397 -4.95,-3.45 h -21.9 c -1.0344,2.05802 -3.1474,3.5 -5.6,3.5 z"
               id="path694"
               style="fill:#00ced1;stroke:#daa520" />
            <path
               d="m 2535.2,40.224 c -3.4699,0 -6.3,-2.8551 -6.3,-6.325 0,-3.4699 2.8301,-6.3 6.3,-6.3 2.4644,0 4.5962,1.4259 5.625,3.5 h 20.725 c 1.0373,-2.0759 3.1842,-3.5 5.65,-3.5 3.4699,0 6.275,2.8301 6.275,6.3 0,3.4699 -2.8051,6.325 -6.275,6.325 -2.4539,0 -4.5821,-1.4402 -5.625,-3.5 H 2540.8 c -1.0344,2.058 -3.1474,3.5 -5.6,3.5 z"
               id="path696"
               style="fill:#00ced1;stroke:#daa520" />
            <path
               d="m 2663.3,24.274 c -1.6132,0 -3.2482,-0.59819 -4.475,-1.825 -2.4537,-2.4536 -2.4537,-6.4714 0,-8.925 1.2268,-1.2268 2.8361,-1.825 4.45,-1.825 0.6838,0 1.3677,0.10404 2.025,0.325 l 24.05,-24.075 c -0.4483,-1.3826 -0.446,-2.911 0.15,-4.35 0.6103,-1.4733 1.716,-2.5777 3.05,-3.225 0,-33.553 -0.044,-67.115 -0.05,-100.68 -2.99,-1.4348 -4.3612,-5.0004 -3.075,-8.1 0.9974,-2.4037 3.3203,-3.8557 5.775,-3.875 0.6744,-0.005 1.3602,0.10494 2.025,0.325 l 24.125,-24.1 c -0.4486,-1.3824 -0.447,-2.9113 0.15,-4.35 0.6112,-1.4729 1.7163,-2.5775 3.05,-3.225 v -68.75 c -2.058,-1.0344 -3.5,-3.1474 -3.5,-5.6 0,-3.4699 2.8551,-6.3 6.325,-6.3 3.4699,0 6.275,2.8301 6.275,6.3 10e-5,2.4644 -1.435,4.5962 -3.5,5.625 v 68.75 c 2.9042,1.4739 4.2429,4.9944 2.975,8.05 -1.2852,3.0973 -4.7746,4.6007 -7.9,3.5 l -24.05,23.975 c 0.4972,1.4182 0.4924,3.037 -0.125,4.525 -0.5969,1.4386 -1.6788,2.5183 -2.975,3.175 0.01,33.588 0.07,67.18 0.075,100.78 2.9047,1.4697 4.2409,4.9437 2.975,8 -1.2823,3.0956 -4.7757,4.667 -7.9,3.575 l -23.975,23.975 c 0.751,2.2031 0.2525,4.7474 -1.5,6.5 -1.2268,1.2268 -2.8368,1.825 -4.45,1.825 z"
               id="path698"
               style="fill:#00ced1;stroke:#daa520" />
            <path
               d="m 2423.4,24.224 c -3.4699,0 -6.325,-2.8551 -6.325,-6.325 0,-3.4699 2.8551,-6.3 6.325,-6.3 2.4658,0 4.5969,1.4241 5.625,3.5 h 20.725 c 1.0379,-2.0741 3.1856,-3.5 5.65,-3.5 3.47,0 6.275,2.8301 6.275,6.3 0,3.4699 -2.805,6.325 -6.275,6.325 -2.4526,0 -4.5815,-1.442 -5.625,-3.5 H 2429 c -1.0338,2.0598 -3.146,3.5 -5.6,3.5 z"
               id="path700"
               style="stroke:#daa520;fill:#00ced1" />
            <path
               d="m 2535.2836,8.32393 c -3.4699,0 -6.325,-2.83006 -6.325,-6.3 0,-2.45391 1.4403,-4.58209 3.5,-5.625 v -52.775 c -2.058,-1.03437 -3.5,-3.14738 -3.5,-5.6 0,-0.7435 0.1358,-1.4609 0.375,-2.125 l -23.95,-23.95 c -2.1979,0.74002 -4.7283,0.2466 -6.475,-1.5 -0.5612,-0.56123 -0.9955,-1.21405 -1.3,-1.9 -0.4142,-0.83875 -0.65,-1.78134 -0.65,-2.775 0,-2.45391 1.4403,-4.56624 3.5,-5.6 v -20.75 c -2.0633,-1.04167 -3.5,-3.19344 -3.5,-5.65 0,-3.46994 2.8551,-6.275 6.325,-6.275 3.4699,0 6.3,2.80506 6.3,6.275 0,2.46445 -1.4259,4.61208 -3.5,5.65 v 20.725 c 1.7108,0.84728 2.9791,2.45907 3.375,4.375 0.2725,1.14912 0.2287,2.35025 -0.15,3.475 l 24.025,24.025 0.175,-0.05 0.075,-0.025 c 0.1409,-0.03962 0.2804,-0.07018 0.425,-0.1 0.4499,-0.09879 0.9179,-0.15 1.375,-0.15 1.614,0 3.1982,0.59819 4.425,1.825 2.3002,2.30027 2.4377,5.95495 0.425,8.425 -0.023,0.02796 -0.052,0.04743 -0.075,0.075 -0.1152,0.1367 -0.2214,0.29635 -0.35,0.425 -0.3121,0.31207 -0.6443,0.56731 -1,0.8 -0.168,0.11286 -0.3462,0.20332 -0.525,0.3 l -0.2,0.1 v 52.725 c 2.076,1.03726 3.5,3.1842 3.5,5.65 -10e-5,3.46994 -2.83,6.3 -6.3,6.3 z"
               id="path702"
               style="fill:#00ced1;stroke:#daa520" />
            <path
               d="m 2567.2836,8.32393 c -3.4699,0 -6.325,-2.83006 -6.325,-6.3 0,-2.45391 1.4403,-4.58209 3.5,-5.625 v -84.775 c -2.058,-1.03437 -3.5,-3.14738 -3.5,-5.6 0,-0.7435 0.1358,-1.4609 0.375,-2.125 l -23.95,-23.95 c -2.1979,0.74002 -4.7283,0.24661 -6.475,-1.5 -0.6134,-0.6134 -1.0683,-1.34171 -1.375,-2.1 -0.3574,-0.78966 -0.575,-1.65626 -0.575,-2.575 0,-2.45391 1.4403,-4.56624 3.5,-5.6 v -100.75 c -2.0633,-1.04167 -3.5,-3.19344 -3.5,-5.65 0,-3.46994 2.8551,-6.275 6.325,-6.275 3.4699,0 6.3,2.80506 6.3,6.275 0,2.46445 -1.4259,4.61208 -3.5,5.65 v 100.725 c 1.7108,0.84728 2.9791,2.45907 3.375,4.375 0.2725,1.14912 0.2287,2.35025 -0.15,3.475 l 24.025,24.025 0.175,-0.05 0.075,-0.025 c 0.1409,-0.0396 0.2804,-0.0702 0.425,-0.1 0.4499,-0.0988 0.9179,-0.15 1.375,-0.15 1.614,0 3.1982,0.59819 4.425,1.825 2.3002,2.30027 2.4377,5.95495 0.425,8.425 -0.023,0.02796 -0.052,0.04743 -0.075,0.075 -0.1152,0.1367 -0.2214,0.29635 -0.35,0.425 -0.3121,0.31207 -0.6443,0.56731 -1,0.8 -0.168,0.11286 -0.3462,0.20332 -0.525,0.3 l -0.2,0.1 v 84.725 c 2.076,1.03726 3.5,3.1842 3.5,5.65 -10e-5,3.46994 -2.83,6.3 -6.3,6.3 z"
               id="path704"
               style="fill:#00ced1;stroke:#daa520" />
            <path
               d="m 2439.3,-7.9011 c -3.4699,0 -6.325,-2.8551 -6.325,-6.325 0,-2.4539 1.4403,-4.5662 3.5,-5.6 v -20.75 c -2.0633,-1.0417 -3.5,-3.1934 -3.5,-5.65 0,-3.4699 2.8551,-6.275 6.325,-6.275 3.4699,0 6.3,2.8051 6.3,6.275 0,2.4644 -1.4259,4.6121 -3.5,5.65 v 20.725 c 2.076,1.0281 3.5,3.1592 3.5,5.625 -10e-5,3.4699 -2.83,6.325 -6.3,6.325 z"
               id="path706"
               style="fill:#00ced1;stroke:#daa520" />
            <path
               d="m 2404.4836,-69.00107 c -1.6132,0 -3.2232,-0.62318 -4.45,-1.85 -2.4536,-2.45362 -2.4536,-6.44638 0,-8.9 1.2269,-1.22681 2.861,-1.85 4.475,-1.85 0.676,0 1.331,0.13406 1.975,0.35 l 10.775,-10.775 c -0.4623,-1.38786 -0.449,-2.92878 0.15,-4.375 0.61,-1.47254 1.7169,-2.57753 3.05,-3.225 v -52.75 c -1.408,-0.70769 -2.5147,-1.91605 -3.075,-3.4 0,-0.0103 -0.021,-0.0147 -0.025,-0.025 -0.037,-0.0999 -0.068,-0.19783 -0.1,-0.3 -0.4584,-1.32253 -0.4714,-2.77423 -0.025,-4.1 l -7.85,-7.85 c -0.6577,0.23187 -1.3649,0.375 -2.1,0.375 -2.6953,0 -5,-1.71638 -5.9,-4.1 0,-0.0103 -0.021,-0.0147 -0.025,-0.025 -0.037,-0.0999 -0.068,-0.19783 -0.1,-0.3 -0.766,-2.21006 -0.2606,-4.76444 1.5,-6.525 0.5084,-0.50837 1.0834,-0.90158 1.7,-1.2 v -52.55 c -2.058,-1.03437 -3.5,-3.14738 -3.5,-5.6 0,-3.46994 2.8551,-6.3 6.325,-6.3 3.4699,0 6.3,2.83006 6.3,6.3 0,2.46445 -1.4259,4.59622 -3.5,5.625 v 52.575 c 0.5644,0.29156 1.1008,0.67577 1.575,1.15 0.4942,0.49419 0.8799,1.05568 1.175,1.65 l 0.075,0.15 c 0.043,0.0932 0.087,0.18022 0.125,0.275 0.3574,0.78966 0.55,1.65626 0.55,2.575 0,0.67878 -0.099,1.33774 -0.3,1.95 l 7.9,7.9 c 0.6573,-0.22096 1.3412,-0.35 2.025,-0.35 1.6139,0 3.2232,0.62319 4.45,1.85 0.4942,0.49419 0.8799,1.05568 1.175,1.65 0.088,0.1623 0.1507,0.32961 0.225,0.5 0.01,0.0173 0.018,0.0326 0.025,0.05 0.3207,0.75445 0.5,1.58251 0.5,2.45 0,2.46445 -1.4259,4.59622 -3.5,5.625 v 52.75 c 2.9084,1.46813 4.2416,4.94185 2.975,8 -1.2819,3.09471 -4.7515,4.64014 -7.875,3.55 l -10.75,10.75 c 0.7291,2.19266 0.2406,4.70935 -1.5,6.45 -1.2268,1.22681 -2.8368,1.85 -4.45,1.85 z"
               id="path708"
               style="fill:#00ced1;stroke:#daa520" />
            <path
               d="m 2454.1,-87.776 c -3.4699,0 -6.3,-2.8551 -6.3,-6.325 0,-3.4699 2.8301,-6.3 6.3,-6.3 2.4644,0 4.5962,1.4259 5.625,3.5 h 21.85 c 1.0373,-2.0759 3.1842,-3.5 5.65,-3.5 3.4699,0 6.275,2.8301 6.275,6.3 0,3.4699 -2.8051,6.325 -6.275,6.325 -2.4539,0 -4.5821,-1.4402 -5.625,-3.5 h -21.875 c -1.0325,2.0634 -3.1685,3.5 -5.625,3.5 z"
               id="path710"
               style="fill:#00ced1;stroke:#daa520" />
            <path
               d="m 2455.3,-135.68 c -3.4699,0 -6.325,-2.8301 -6.325,-6.3 0,-2.4539 1.4403,-4.5821 3.5,-5.625 v -52.775 c -2.058,-1.0344 -3.5,-3.1474 -3.5,-5.6 0,-3.4699 2.8551,-6.3 6.325,-6.3 3.4699,0 6.3,2.8301 6.3,6.3 0,2.4644 -1.4259,4.5962 -3.5,5.625 v 52.725 c 2.076,1.0373 3.5,3.1842 3.5,5.65 0,3.4699 -2.83,6.3 -6.3,6.3 z"
               id="path712"
               style="fill:#00ced1;stroke:#daa520" />
            <path
               d="m 2503.3,-135.68 c -3.4699,0 -6.325,-2.8301 -6.325,-6.3 0,-2.4539 1.4403,-4.5821 3.5,-5.625 v -84.775 c -2.058,-1.0344 -3.5,-3.1474 -3.5,-5.6 0,-3.4699 2.8551,-6.3 6.325,-6.3 3.4699,0 6.3,2.8301 6.3,6.3 0,2.4644 -1.4259,4.5962 -3.5,5.625 v 84.725 c 2.076,1.0373 3.5,3.1842 3.5,5.65 0,3.4699 -2.83,6.3 -6.3,6.3 z"
               id="path714"
               style="fill:#00ced1;stroke:#daa520" />
            <path
               d="m 2615.2836,-135.67607 c -3.4699,0 -6.325,-2.83006 -6.325,-6.3 0,-2.45391 1.4403,-4.58209 3.5,-5.625 v -100.775 c -2.058,-1.03437 -3.5,-3.14738 -3.5,-5.6 0,-2.45262 1.4403,-4.58209 3.5,-5.625 v -21.575 c -0.4032,-0.23638 -0.7792,-0.52922 -1.125,-0.875 -1.1124,-1.11237 -1.6698,-2.59113 -1.65,-4.05 -6e-4,-0.0334 0,-0.0665 0,-0.1 0,-3.0912 2.5088,-5.6 5.6,-5.6 0.561,0 1.1139,0.0712 1.625,0.225 l 25,-25.025 c -0.2924,-1.13474 -0.2326,-2.35982 0.25,-3.525 0.4971,-1.20012 1.3498,-2.13136 2.4,-2.725 v -102.275 c -2.4209,-1.37458 -3.4926,-4.36219 -2.4,-7 1.0823,-2.61287 3.9131,-3.96858 6.575,-3.275 l 25.175,-25.2 c -0.2929,-1.13462 -0.2322,-2.35962 0.25,-3.525 0.4966,-1.20032 1.35,-2.13093 2.4,-2.725 l -0.05,-86.275 c -1.6775,-0.96648 -2.8233,-2.77608 -2.825,-4.85 0,-0.53592 0.084,-1.05896 0.225,-1.55 l -25.075,-25.07496 c -0.4909,0.14072 -1.014,0.22496 -1.55,0.22496 -3.0912,0 -5.6,-2.5088 -5.6,-5.6 0,-0.0335 -6e-4,-0.0666 0,-0.1 -9e-4,-0.0417 0,-0.083 0,-0.12496 0,-0.11664 0.013,-0.23536 0.025,-0.35008 0.1183,-1.91184 1.1876,-3.55776 2.75,-4.47496 v -70.17496 c -1.7192,-0.9564 -2.875,-2.79448 -2.875,-4.9 0,-3.0912 2.5088,-5.6 5.6,-5.6 3.0912,0 5.6,2.50872 5.6,5.6 0,2.02256 -1.0915,3.79064 -2.7,4.77496 v 70.27496 c 0.973,0.56304 1.7605,1.40728 2.25,2.42504 0.6629,1.26208 0.7914,2.72328 0.425,4.07496 l 25.15,25.15008 c 0.2611,-0.0663 0.5257,-0.12192 0.8,-0.15008 1.6462,-0.1956 3.3627,0.31272 4.625,1.57504 2.1858,2.18584 2.1858,5.7392 0,7.92496 -0.3821,0.38208 -0.7992,0.70152 -1.25,0.95008 l 0.075,86.27496 c 2.3743,1.39047 3.4315,4.36113 2.35,6.975 -1.0944,2.64523 -4.0099,4.00184 -6.7,3.25 l -25.1,25.125 c 0.3221,1.16173 0.2717,2.42573 -0.225,3.625 -0.4845,1.16963 -1.3106,2.07956 -2.325,2.675 v 102.35 c 2.3738,1.39144 3.4075,4.36158 2.325,6.975 -1.0956,2.64479 -3.9852,4.00294 -6.675,3.25 l -25.1,25.1 c 0.1,0.41822 0.175,0.85135 0.175,1.3 0,0.034 -5e-4,0.066 0,0.1 0,0.159 -0.01,0.31949 -0.025,0.475 -0.09,1.30047 -0.6315,2.58153 -1.625,3.575 -0.3512,0.35117 -0.7398,0.63666 -1.15,0.875 v 21.55 c 2.076,1.03727 3.5,3.1842 3.5,5.65 0,2.46445 -1.4259,4.59622 -3.5,5.625 v 100.725 c 2.076,1.03727 3.5,3.1842 3.5,5.65 0,3.46994 -2.83,6.3 -6.3,6.3 z"
               id="path716"
               style="fill:#00ced1;stroke:#daa520" />
            <path
               d="m 2487.1836,-135.77607 c -3.4699,0 -6.3,-2.85506 -6.3,-6.325 0,-2.49402 1.4606,-4.6517 3.575,-5.675 v -52.6 c -2.058,-1.03437 -3.5,-3.14738 -3.5,-5.6 0,-0.0431 -9e-4,-0.0821 0,-0.125 9e-4,-0.0429 0,-0.0835 0,-0.125 0,-0.67772 0.1246,-1.31357 0.325,-1.925 l -23.9,-23.9 c -2.1979,0.74002 -4.7283,0.24661 -6.475,-1.5 -2.4536,-2.45361 -2.4536,-6.47138 0,-8.925 1.2269,-1.22681 2.861,-1.825 4.475,-1.825 1.614,0 3.1982,0.59819 4.425,1.825 1.7466,1.7466 2.24,4.2771 1.5,6.475 l 23.875,23.875 c 0.6592,-0.23302 1.363,-0.375 2.1,-0.375 3.0362,0 5.5835,2.16231 6.175,5.025 0.4413,1.86094 0.042,3.8707 -1.225,5.425 -0.023,0.028 -0.052,0.0474 -0.075,0.075 -0.1152,0.1367 -0.2214,0.29635 -0.35,0.425 -0.3121,0.31207 -0.6443,0.56731 -1,0.8 -0.168,0.11286 -0.3462,0.20332 -0.525,0.3 l -0.2,0.1 v 52.65 c 2.0123,1.05577 3.375,3.17431 3.375,5.6 0,3.46994 -2.8051,6.325 -6.275,6.325 z"
               id="path718"
               style="fill:#00ced1;stroke:#daa520" />
            <path
               d="m 2583.2836,-167.67607 c -3.4699,0 -6.325,-2.83006 -6.325,-6.3 0,-2.45391 1.4403,-4.58209 3.5,-5.625 v -68.775 c -2.058,-1.03437 -3.5,-3.14738 -3.5,-5.6 0,-2.45262 1.4403,-4.58209 3.5,-5.625 v -21.525 c -0.4324,-0.24414 -0.8318,-0.55682 -1.2,-0.925 -1.776,-1.77596 -2.11,-4.46182 -1,-6.575 0.9057,-1.87434 2.805,-3.175 5.025,-3.175 0.5365,0 1.0587,0.0839 1.55,0.225 l 25,-25.025 c -0.2924,-1.13474 -0.2576,-2.35982 0.225,-3.525 0.4923,-1.18849 1.3635,-2.10555 2.4,-2.7 v -102.3 c -2.2445,-1.28574 -3.3216,-3.98554 -2.575,-6.475 0.3762,-1.45827 1.3073,-2.68078 2.575,-3.425 v -102.35 c -1.6571,-0.97288 -2.775,-2.76576 -2.775,-4.82496 0,-3.0912 2.5088,-5.6 5.6,-5.6 3.0912,0 5.6,2.50872 5.6,5.6 0,2.07176 -1.1261,3.88136 -2.8,4.84992 v 100.52504 l 23.75,-23.775 c -0.2924,-1.13474 -0.2576,-2.35982 0.225,-3.525 0.4923,-1.18849 1.3635,-2.10555 2.4,-2.7 v -70.32504 c -1.6593,-0.97232 -2.775,-2.76416 -2.775,-4.82496 0,-3.0912 2.5088,-5.6 5.6,-5.6 3.0912,0 5.6,2.5088 5.6,5.6 0,2.0732 -1.1242,3.88192 -2.8,4.85 v 70.3 c 2.3738,1.39144 3.4075,4.36158 2.325,6.975 -1.0956,2.64479 -3.9852,4.00294 -6.675,3.25 l -25.025,25 c 0.1152,0.44722 0.175,0.917 0.175,1.4 0,0.4423 -0.053,0.86219 -0.15,1.275 -0.01,0.0413 -0.016,0.0838 -0.025,0.125 -0.022,0.0854 -0.049,0.1662 -0.075,0.25 -0.063,0.23854 -0.128,0.46575 -0.225,0.7 -0.4845,1.16963 -1.3106,2.07956 -2.325,2.675 v 102.35 c 2.3738,1.39144 3.4075,4.36158 2.325,6.975 -1.0956,2.64479 -3.9852,4.00294 -6.675,3.25 l -25.025,25.025 c 0.1109,0.43942 0.175,0.9013 0.175,1.375 0,0.62589 -0.1103,1.21285 -0.3,1.775 -0.01,0.0173 -0.02,0.0327 -0.025,0.05 -0.04,0.11426 -0.078,0.23923 -0.125,0.35 -0.2723,0.71767 -0.6973,1.39733 -1.275,1.975 -0.3319,0.3319 -0.6898,0.6189 -1.075,0.85 v 21.575 c 2.076,1.03727 3.5,3.1842 3.5,5.65 0,2.46445 -1.4259,4.59622 -3.5,5.625 v 68.725 c 2.076,1.03727 3.5,3.1842 3.5,5.65 0,3.46994 -2.83,6.3 -6.3,6.3 z"
               id="path720"
               style="fill:#00ced1;stroke:#daa520" />
            <path
               d="m 2663.3,-183.9 c -3.4699,0 -6.325,-2.8551 -6.325,-6.325 0,-2.4539 1.4403,-4.5662 3.5,-5.6 v -52.75 c -2.0633,-1.0417 -3.5,-3.1934 -3.5,-5.65 0,-3.4699 2.8551,-6.275 6.325,-6.275 0.737,0 1.4408,0.14198 2.1,0.375 l 24.45,-24.45 c -0.2993,-1.1412 -0.2609,-2.3768 0.225,-3.55 0.4971,-1.2001 1.3748,-2.1314 2.425,-2.725 v -102.28 c -2.4209,-1.3746 -3.5176,-4.3622 -2.425,-7 1.0823,-2.6129 3.9381,-3.9686 6.6,-3.275 l 25.175,-25.175 c -0.2998,-1.141 -0.2605,-2.3766 0.225,-3.55 0.4966,-1.2003 1.375,-2.1309 2.425,-2.725 l -0.075,-86.275 c -1.6747,-0.9672 -2.7983,-2.7782 -2.8,-4.85 0,-3.0912 2.5088,-5.5975 5.6,-5.6 3.0912,-0.002 5.5975,2.5088 5.6,5.6 0,2.0732 -1.1255,3.8806 -2.8,4.85 l 0.1,86.325 c 2.3533,1.3978 3.3769,4.3471 2.3,6.95 -1.0944,2.6452 -3.9849,4.0018 -6.675,3.25 l -25.1,25.1 c 0.3293,1.168 0.2751,2.4427 -0.225,3.65 -0.4815,1.1624 -1.2941,2.0793 -2.3,2.675 v 102.38 c 2.3527,1.3987 3.3779,4.3475 2.3,6.95 -1.0956,2.6448 -3.9852,4.0029 -6.675,3.25 l -24.45,24.45 c 0.2002,0.61114 0.3,1.2476 0.3,1.925 0,2.4644 -1.4259,4.6121 -3.5,5.65 v 52.725 c 2.076,1.0281 3.5,3.1592 3.5,5.625 0,3.4699 -2.83,6.325 -6.3,6.325 z"
               id="path722"
               style="fill:#00ced1;stroke:#daa520" />
            <path
               d="m 2711.3,-183.9 c -3.4699,0 -6.325,-2.8551 -6.325,-6.325 0,-2.4539 1.4403,-4.5662 3.5,-5.6 v -36.75 c -2.0633,-1.0417 -3.5,-3.1934 -3.5,-5.65 0,-3.4699 2.8551,-6.275 6.325,-6.275 3.4699,0 6.3,2.8051 6.3,6.275 0,2.4644 -1.4259,4.6121 -3.5,5.65 v 36.725 c 2.076,1.0281 3.5,3.1592 3.5,5.625 0,3.4699 -2.83,6.325 -6.3,6.325 z"
               id="path724"
               style="fill:#00ced1;stroke:#daa520" />
            <path
               d="m 2471.2836,-248.60107 c -3.0912,0 -5.6,-2.5088 -5.6,-5.6 0,-2.0718 1.1261,-3.8814 2.8,-4.85 v -22.25 c -0.4395,-0.24587 -0.8764,-0.55144 -1.25,-0.925 -2.1858,-2.18581 -2.1858,-5.7142 0,-7.9 0.3736,-0.37356 0.8105,-0.67913 1.25,-0.925 v -102.075 c -0.4395,-0.24587 -0.8764,-0.55144 -1.25,-0.925 -1.776,-1.77596 -2.085,-4.46182 -0.975,-6.575 0.9057,-1.87434 2.805,-3.175 5.025,-3.175 0.5365,0 1.0587,0.0839 1.55,0.225 l 8.975,-8.975 c -0.3664,-1.3517 -0.2129,-2.81294 0.45,-4.075 0.4847,-1.00303 1.244,-1.83874 2.2,-2.4 v -22.35 c -1.6571,-0.97286 -2.775,-2.76579 -2.775,-4.825 0,-3.0912 2.5088,-5.6 5.6,-5.6 3.0912,0 5.6,2.5088 5.6,5.6 0,2.0718 -1.1261,3.8814 -2.8,4.85 v 22.3 c 1.6739,0.9686 2.8,2.7782 2.8,4.85 0,0.62589 -0.1103,1.21285 -0.3,1.775 -0.042,0.14164 -0.1217,0.28639 -0.175,0.425 -0.013,0.0309 -0.011,0.0694 -0.025,0.1 -0.2732,0.67415 -0.6786,1.30355 -1.225,1.85 -1.4643,1.46434 -3.5321,1.92267 -5.4,1.425 l -9.05,9.05 c 0.1114,0.44036 0.175,0.90018 0.175,1.375 0,0.82303 -0.1807,1.5959 -0.5,2.3 -0.034,0.0827 -0.062,0.16866 -0.1,0.25 -0.021,0.0419 -0.053,0.0837 -0.075,0.125 -0.2635,0.5327 -0.6066,1.03165 -1.05,1.475 -0.3234,0.32339 -0.6758,0.5973 -1.05,0.825 v 102.275 c 0.3742,0.2277 0.7266,0.50161 1.05,0.825 1.4705,1.47049 1.958,3.551 1.45,5.425 l 9.125,9.125 c 1.874,-0.50805 3.9545,-0.0205 5.425,1.45 2.1858,2.1858 2.1858,5.71419 0,7.9 -2.1858,2.18581 -5.7392,2.18581 -7.925,0 -1.4643,-1.46434 -1.9227,-3.53209 -1.425,-5.4 l -7.7,-7.7 v 20.3 c 1.6571,0.97286 2.775,2.76579 2.775,4.825 0,3.0912 -2.5088,5.6 -5.6,5.6 z"
               id="path726"
               style="fill:#00ced1;stroke:#daa520" />
            <path
               d="m 2519.2086,-264.57607 c -1.4334,0 -2.8821,-0.5571 -3.975,-1.65 -1.4643,-1.46434 -1.9227,-3.53209 -1.425,-5.4 l -8.975,-8.975 c -0.4909,0.14079 -1.014,0.225 -1.55,0.225 -2.3567,0 -4.3739,-1.46228 -5.2,-3.525 -0.9145,-2.0565 -0.5358,-4.5392 1.15,-6.225 0.3736,-0.37356 0.8105,-0.67913 1.25,-0.925 v -70.075 c -0.1181,-0.066 -0.236,-0.12475 -0.35,-0.2 -0.3105,-0.20492 -0.6268,-0.45178 -0.9,-0.725 -0.1366,-0.13662 -0.2555,-0.27841 -0.375,-0.425 -1.6735,-2.05225 -1.6735,-5.02274 0,-7.075 0.1195,-0.14659 0.2384,-0.28838 0.375,-0.425 0.1366,-0.13662 0.2784,-0.25546 0.425,-0.375 1.1685,-0.95937 2.6485,-1.35526 4.075,-1.225 h 0.025 c 0.034,0.003 0.065,0.0211 0.1,0.025 0.145,0.0147 0.2834,0.0244 0.425,0.05 0.018,0.003 0.032,0.0214 0.05,0.025 0.05,0.0101 0.1007,0.0136 0.15,0.025 0.059,0.0137 0.1163,0.0344 0.175,0.05 l 9.15,-9.15 c -0.4608,-1.6999 -0.1171,-3.5687 1.05,-5 0.1195,-0.14659 0.2384,-0.28838 0.375,-0.425 0.1366,-0.13662 0.2784,-0.25546 0.425,-0.375 0.2586,-0.21228 0.5409,-0.39107 0.825,-0.55 v -70.225 c -1.082,-0.6251 -1.9308,-1.60332 -2.4,-2.775 -0.5232,-1.17638 -0.6027,-2.49489 -0.275,-3.725 l -25.15,-25.15 c -1.8679,0.49767 -3.9357,0.0143 -5.4,-1.45 -2.1858,-2.18581 -2.1858,-5.7142 0,-7.9 2.1858,-2.1858 5.7142,-2.18581 7.9,0 1.4705,1.47049 1.958,3.551 1.45,5.425 l 25.125,25.125 c 1.874,-0.50805 3.9545,-0.0205 5.425,1.45 0.4434,0.44335 0.7865,0.9423 1.05,1.475 0.022,0.0413 0.054,0.0831 0.075,0.125 0.038,0.0813 0.066,0.1673 0.1,0.25 0.3193,0.7041 0.5,1.47697 0.5,2.3 0,2.0608 -1.1157,3.85267 -2.775,4.825 v 70.35 c 0.058,0.0353 0.118,0.0624 0.175,0.1 0.039,0.026 0.086,0.0479 0.125,0.075 1.4897,1.00669 2.475,2.718 2.475,4.65 0,3.0912 -2.5088,5.6 -5.6,5.6 -0.5427,0 -1.0536,-0.0808 -1.55,-0.225 l -9.075,9.075 c 0.1411,0.49134 0.225,1.0135 0.225,1.55 0,2.0608 -1.1157,3.85267 -2.775,4.825 v 70.2 c 0.3742,0.2277 0.7266,0.50161 1.05,0.825 0.4434,0.44335 0.7865,0.9423 1.05,1.475 0.022,0.0413 0.054,0.0831 0.075,0.125 0.038,0.0813 0.066,0.1673 0.1,0.25 0.3193,0.7041 0.5,1.47697 0.5,2.3 0,0.47874 -0.062,0.93134 -0.175,1.375 l 9.025,9.025 c 1.874,-0.50805 3.9545,-0.0205 5.425,1.45 2.1858,2.1858 2.1858,5.71419 0,7.9 -1.0929,1.0929 -2.5166,1.65 -3.95,1.65 z"
               id="path728"
               style="stroke:#daa520;fill:#00ced1" />
            <path
               d="m 2727.3,-280.38 c -3.0912,0 -5.6,-2.5088 -5.6,-5.6 0,-2.0592 1.1179,-3.8521 2.775,-4.825 v -102.35 c -1.6593,-0.97233 -2.775,-2.7642 -2.775,-4.825 0,-3.0912 2.5088,-5.6 5.6,-5.6 3.0912,0 5.6,2.5088 5.6,5.6 0,2.0732 -1.1242,3.8819 -2.8,4.85 v 102.3 c 1.6739,0.9686 2.8,2.7782 2.8,4.85 0,3.0912 -2.5088,5.6 -5.6,5.6 z"
               id="path730"
               style="fill:#00ced1;stroke:#daa520" />
            <path
               d="m 2535.2,-296.5 c -3.0912,0 -5.6,-2.5088 -5.6,-5.6 0,-3.0912 2.5088,-5.6 5.6,-5.6 2.0632,0 3.8535,1.1375 4.825,2.8 h 23.45 c 0.9705,-1.6666 2.7587,-2.8 4.825,-2.8 3.0912,0 5.6,2.5088 5.6,5.6 0,3.0912 -2.5088,5.6 -5.6,5.6 -2.0592,0 -3.8271,-1.1179 -4.8,-2.775 h -23.475 c -0.9723,1.6593 -2.7642,2.775 -4.825,2.775 z"
               id="path732"
               style="stroke:#daa520;fill:#00ced1" />
            <path
               d="m 2439.2836,-328.37607 c -3.0912,0 -5.6,-2.5088 -5.6,-5.6 0,-2.05921 1.1179,-3.85214 2.775,-4.825 v -22.35 c -1.6593,-0.97233 -2.775,-2.7642 -2.775,-4.825 0,-0.53595 0.084,-1.0591 0.225,-1.55 l -25.075,-25.075 c -2.6898,0.75294 -5.5794,-0.60521 -6.675,-3.25 -1.0779,-2.60246 -0.053,-5.55127 2.3,-6.95 v -70.325 c -2.4079,-1.37931 -3.4898,-4.3689 -2.4,-7 1.0844,-2.61791 3.9336,-3.97785 6.6,-3.275 l 25.175,-25.2 c -0.028,-0.10799 -0.054,-0.21534 -0.075,-0.325 -0.4125,-1.81465 0.088,-3.78783 1.5,-5.2 0.3682,-0.36818 0.7676,-0.68086 1.2,-0.925 v -150.10004 c -0.961,-0.56312 -1.715,-1.41608 -2.2,-2.42496 -0.054,-0.11216 -0.1285,-0.20888 -0.175,-0.32496 -0.062,-0.13872 -0.1002,-0.28272 -0.15,-0.42504 -0.373,-1.06472 -0.4141,-2.21488 -0.125,-3.3 l -9.15,-9.15 c -1.8679,0.49768 -3.9607,0.0143 -5.425,-1.45 -2.1858,-2.18584 -2.1858,-5.71416 0,-7.9 2.1858,-2.18584 5.7392,-2.18584 7.925,0 1.4705,1.47048 1.958,3.55096 1.45,5.42504 l 9.125,9.12496 c 1.874,-0.50808 3.9545,-0.0205 5.425,1.45 0.4434,0.44336 0.7865,0.94232 1.05,1.47496 0.1509,0.27776 0.2722,0.57152 0.375,0.87504 0.1909,0.56368 0.3,1.17208 0.3,1.8 0,2.0732 -1.1242,3.88192 -2.8,4.85 v 150.15 c 0.3852,0.2311 0.7431,0.5181 1.075,0.85 0.7215,0.72146 1.2048,1.5797 1.45,2.5 0.038,0.12326 0.071,0.24922 0.1,0.375 0.01,0.0483 0.017,0.10148 0.025,0.15 0.1622,0.79355 0.1269,1.62989 -0.075,2.45 l 25.075,25.075 c 1.874,-0.50805 3.9545,-0.0205 5.425,1.45 2.1858,2.1858 2.1858,5.71419 0,7.9 -2.1858,2.18581 -5.7142,2.18581 -7.9,0 -1.4643,-1.46434 -1.9477,-3.53209 -1.45,-5.4 l -24.975,-24.975 c -0.9906,0.29313 -2.0799,0.29747 -3.125,0 l -25.075,25.075 c 0.3365,1.17423 0.2784,2.45964 -0.225,3.675 -0.4845,1.16963 -1.3106,2.07956 -2.325,2.675 v 70.325 c 1.0502,0.59364 1.9279,1.52488 2.425,2.725 0.4859,1.17323 0.5243,2.40883 0.225,3.55 l 25.175,25.175 c 0.082,-0.0207 0.1666,-0.0579 0.25,-0.075 l 0.125,-0.025 c 0.1416,-0.0256 0.28,-0.0353 0.425,-0.05 1.6444,-0.19373 3.3642,0.31417 4.625,1.575 2.1858,2.18581 2.1858,5.7392 0,7.925 -0.1366,0.13662 -0.2784,0.25546 -0.425,0.375 -0.014,0.0115 -0.036,0.0136 -0.05,0.025 -0.2431,0.19436 -0.5099,0.37706 -0.775,0.525 v 22.3 c 1.6739,0.9686 2.8,2.7782 2.8,4.85 0,3.0912 -2.5088,5.6 -5.6,5.6 z"
               id="path734"
               style="fill:#00ced1;stroke:#daa520" />
            <path
               d="m 2535.2,-328.5 c -3.0912,0 -5.6,-2.5088 -5.6,-5.6 0,-3.0912 2.5088,-5.6 5.6,-5.6 2.0632,0 3.8535,1.1375 4.825,2.8 h 23.45 c 0.9705,-1.6666 2.7587,-2.8 4.825,-2.8 3.0912,0 5.6,2.5088 5.6,5.6 0,3.0912 -2.5088,5.6 -5.6,5.6 -2.0592,0 -3.8271,-1.1179 -4.8,-2.775 h -23.475 c -0.9723,1.6593 -2.7642,2.775 -4.825,2.775 z"
               id="path736"
               style="stroke:#daa520;fill:#00ced1" />
            <path
               d="m 2599.2836,-360.37607 c -3.0912,0 -5.6,-2.5088 -5.6,-5.6 0,-2.0718 1.1261,-3.8814 2.8,-4.85 v -22.3 c -1.6758,-0.96812 -2.8,-2.77682 -2.8,-4.85 0,-0.53595 0.084,-1.0591 0.225,-1.55 l -9.25,-9.25 c -0.4394,0.1109 -0.9013,0.175 -1.375,0.175 -1.4086,0 -2.6905,-0.51536 -3.675,-1.375 -0.2661,-0.18588 -0.5125,-0.41252 -0.75,-0.65 -2.1858,-2.18581 -2.1858,-5.71419 0,-7.9 0.4863,-0.48634 1.0338,-0.88008 1.625,-1.15 v -117.65 c -1.0502,-0.59368 -1.9279,-1.52488 -2.425,-2.72504 -0.4893,-1.1812 -0.5313,-2.42744 -0.225,-3.57496 l -9.15,-9.15 c -1.874,0.50808 -3.9545,0.0205 -5.425,-1.45 -2.1858,-2.18584 -2.1858,-5.71416 0,-7.9 2.1858,-2.18584 5.7142,-2.18584 7.9,0 1.4705,1.47048 1.958,3.55096 1.45,5.42504 l 9.1,9.1 c 2.6965,-0.76752 5.6012,0.59744 6.7,3.24992 1.0772,2.6008 0.049,5.55016 -2.3,6.95008 v 118.32496 c 0.1009,0.0744 0.2032,0.14302 0.3,0.225 1.4897,1.00669 2.475,2.718 2.475,4.65 0,0.53464 -0.085,1.03517 -0.225,1.525 l 9.25,9.275 c 0.2646,-0.0675 0.5219,-0.12173 0.8,-0.15 1.6462,-0.19566 3.3627,0.3127 4.625,1.575 2.1858,2.1858 2.1858,5.73919 0,7.925 -0.1366,0.13662 -0.2784,0.25546 -0.425,0.375 -0.013,0.0113 -0.037,0.0138 -0.05,0.025 -0.2416,0.19314 -0.4867,0.37769 -0.75,0.525 v 22.325 c 1.6571,0.97286 2.775,2.76579 2.775,4.825 0,3.0912 -2.5088,5.6 -5.6,5.6 z"
               id="path738"
               style="stroke:#daa520;fill:#00ced1" />
            <path
               d="m 2535.1836,-360.50107 c -2.3184,0 -4.3245,-1.4153 -5.175,-3.425 -0.071,-0.16747 -0.1204,-0.32468 -0.175,-0.5 -0.1637,-0.52595 -0.25,-1.0954 -0.25,-1.675 0,-3.0912 2.5088,-5.6 5.6,-5.6 2.0632,0 3.8535,1.13751 4.825,2.8 h 23.45 c 0.063,-0.1083 0.13,-0.22146 0.2,-0.325 1.0067,-1.48969 2.693,-2.475 4.625,-2.475 3.0912,0 5.6,2.5088 5.6,5.6 0,3.0912 -2.5088,5.6 -5.6,5.6 -0.1932,0 -0.3618,-0.006 -0.55,-0.025 -1.8175,-0.18476 -3.3684,-1.24834 -4.25,-2.75 h -23.475 c -0.9723,1.65926 -2.7642,2.775 -4.825,2.775 z"
               id="path740"
               style="stroke:#daa520;fill:#00ced1" />
            <path
               d="m 2535.2,-392.5 c -3.0912,0 -5.6,-2.5088 -5.6,-5.6 0,-3.0912 2.5088,-5.6 5.6,-5.6 2.0632,0 3.8535,1.1375 4.825,2.8 h 22.325 c 0.9705,-1.6666 2.7837,-2.8 4.85,-2.8 3.0912,0 5.6,2.5088 5.6,5.6 0,3.0912 -2.5088,5.6 -5.6,5.6 -2.0592,0 -3.8521,-1.1179 -4.825,-2.775 h -22.35 c -0.9723,1.6593 -2.7642,2.775 -4.825,2.775 z"
               id="path742"
               style="stroke:#daa520;fill:#00ced1" />
            <path
               d="m 2663.3,-408.43 c -1.4334,0 -2.8571,-0.5321 -3.95,-1.625 -2.1858,-2.1858 -2.1858,-5.7392 0,-7.925 1.4643,-1.4643 3.5321,-1.9227 5.4,-1.425 l 25.175,-25.2 c -0.2924,-1.1347 -0.2326,-2.3598 0.25,-3.525 0.4971,-1.2001 1.3498,-2.1314 2.4,-2.725 0,-34.086 -0.045,-68.182 -0.05,-102.28 -2.4401,-1.3686 -3.5235,-4.3526 -2.425,-7 1.0839,-2.6122 3.9135,-3.9702 6.575,-3.275 l 25.25,-25.2 c -0.2917,-1.135 -0.2333,-2.3602 0.25,-3.525 0.4957,-1.1947 1.3554,-2.1316 2.4,-2.725 v -70.3 c -1.6625,-0.97144 -2.8,-2.7618 -2.8,-4.825 0,-3.0912 2.5088,-5.6 5.6,-5.6 3.0912,0 5.6,2.5088 5.6,5.6 0,2.0732 -1.1242,3.8819 -2.8,4.85 v 70.3 c 2.3729,1.3929 3.4091,4.3622 2.325,6.975 -1.0971,2.6442 -3.9856,4.0046 -6.675,3.2501 l -25.175,25.075 c 0.3358,1.1745 0.2792,2.4599 -0.225,3.675 -0.4836,1.1655 -1.3148,2.0801 -2.325,2.675 0,34.113 0.07,68.23 0.075,102.35 2.3738,1.3914 3.4075,4.3616 2.325,6.975 -1.0956,2.6448 -3.9852,4.0029 -6.675,3.25 l -25.125,25.125 c 0.508,1.874 0.021,3.9545 -1.45,5.425 -1.0929,1.0929 -2.5166,1.625 -3.95,1.625 z"
               id="path744"
               style="stroke:#daa520;fill:#00ced1" />
            <path
               d="m 2423.4,-408.5 c -3.0912,0 -5.6,-2.5088 -5.6,-5.6 0,-3.0912 2.5088,-5.6 5.6,-5.6 2.0632,0 3.8535,1.1375 4.825,2.8 h 22.325 c 0.9705,-1.6666 2.7837,-2.8 4.85,-2.8 3.0912,0 5.6,2.5088 5.6,5.6 0,3.0912 -2.5088,5.6 -5.6,5.6 -2.0592,0 -3.8521,-1.1179 -4.825,-2.775 h -22.35 c -0.9723,1.6593 -2.7642,2.775 -4.825,2.775 z"
               id="path746"
               style="fill:#00ced1;stroke:#daa520" />
            <path
               d="m 2535.2836,-424.37607 c -3.0912,0 -5.6,-2.5088 -5.6,-5.6 0,-2.0718 1.1261,-3.8814 2.8,-4.85 v -54.3 c -1.6758,-0.96812 -2.8,-2.77682 -2.8,-4.85 0,-0.53595 0.084,-1.0591 0.225,-1.55 l -25.1,-25.1 c -1.8679,0.49768 -3.9357,0.0394 -5.4,-1.42504 -0.5713,-0.57128 -0.9773,-1.24112 -1.25,-1.94992 -0.2916,-0.678 -0.475,-1.4156 -0.475,-2.2 0,-2.07184 1.1261,-3.88144 2.8,-4.85008 v -22.3 c -1.6739,-0.96856 -2.8,-2.77816 -2.8,-4.84992 0,-3.0912 2.5088,-5.6 5.6,-5.6 3.0912,0 5.6,2.50872 5.6,5.6 0,2.0592 -1.1179,3.85208 -2.775,4.82496 v 22.35 c 0.9575,0.56208 1.7405,1.39496 2.225,2.4 0.044,0.0828 0.086,0.1656 0.125,0.25 0.071,0.16744 0.1204,0.32472 0.175,0.5 0.3792,1.07536 0.422,2.22944 0.125,3.32496 l 25.15,25.15004 c 0.059,-0.0156 0.1159,-0.0363 0.175,-0.05 l 0.075,-0.025 0.125,-0.025 c 0.1416,-0.0256 0.28,-0.0353 0.425,-0.05 1.6444,-0.19373 3.3642,0.31417 4.625,1.575 2.1858,2.18581 2.1858,5.7392 0,7.925 -0.1366,0.13662 -0.2784,0.25546 -0.425,0.375 -0.013,0.0113 -0.037,0.0138 -0.05,0.025 -0.2328,0.18622 -0.4969,0.35635 -0.75,0.5 v 54.35 c 1.6571,0.97286 2.775,2.76579 2.775,4.825 0,3.0912 -2.5088,5.6 -5.6,5.6 z"
               id="path748"
               style="fill:#00ced1;stroke:#daa520" />
            <path
               d="m 2567.2836,-424.37607 c -3.0912,0 -5.6,-2.5088 -5.6,-5.6 0,-2.05921 1.1179,-3.85214 2.775,-4.825 v -86.35004 c -1.6593,-0.97232 -2.775,-2.76416 -2.775,-4.82496 0,-0.53592 0.084,-1.05912 0.225,-1.55 l -25.1,-25.1 c -1.8679,0.49768 -3.9357,0.0394 -5.4,-1.42504 -0.5713,-0.57128 -0.9773,-1.24112 -1.25,-1.94992 0,-0.0101 -0.021,-0.015 -0.025,-0.025 -0.049,-0.12912 -0.111,-0.26832 -0.15,-0.4 -0.1897,-0.56216 -0.3,-1.14912 -0.3,-1.77496 0,-2.07184 1.1261,-3.88144 2.8,-4.85008 v -102.3 c -1.6739,-0.96856 -2.8,-2.77816 -2.8,-4.84992 0,-3.0912 2.5088,-5.6 5.6,-5.6 3.0912,0 5.6,2.50872 5.6,5.6 0,2.0592 -1.1179,3.85208 -2.775,4.82496 v 102.35 c 0.9575,0.56208 1.7405,1.39496 2.225,2.4 0.044,0.0828 0.086,0.1656 0.125,0.25 0.071,0.16744 0.1204,0.32472 0.175,0.5 0.3792,1.07536 0.422,2.22944 0.125,3.32496 l 25.15,25.15008 c 0.059,-0.0157 0.1159,-0.0363 0.175,-0.0501 l 0.075,-0.025 0.125,-0.025 c 0.1416,-0.0257 0.28,-0.0353 0.425,-0.0501 1.6444,-0.19368 3.3642,0.31424 4.625,1.57504 2.1858,2.18584 2.1858,5.7392 0,7.92496 -0.1366,0.13664 -0.2784,0.25552 -0.425,0.37504 -0.014,0.0115 -0.036,0.0136 -0.05,0.025 -0.242,0.1936 -0.5112,0.37744 -0.775,0.52504 v 86.3 c 1.6739,0.9686 2.8,2.7782 2.8,4.85 0,3.0912 -2.5088,5.6 -5.6,5.6 z"
               id="path750"
               style="fill:#00ced1;stroke:#daa520" />
            <path
               d="m 2439.3,-440.6 c -3.0912,0 -5.6,-2.5088 -5.6,-5.6 0,-2.0718 1.1261,-3.8814 2.8,-4.85 v -22.3 c -1.6739,-0.9686 -2.8,-2.7782 -2.8,-4.85 0,-3.0912 2.5088,-5.6 5.6,-5.6 3.0912,0 5.6,2.5088 5.6,5.6 0,2.0592 -1.1179,3.8521 -2.775,4.825 v 22.35 c 1.6571,0.97286 2.775,2.7658 2.775,4.825 0,3.0912 -2.5088,5.6 -5.6,5.6 z"
               id="path752"
               style="fill:#00ced1;stroke:#daa520" />
            <path
               d="m 2404.4836,-501.70107 c -1.4334,0 -2.8571,-0.53209 -3.95,-1.625 -2.1858,-2.18581 -2.1858,-5.7392 0,-7.925 1.4705,-1.4705 3.551,-1.95806 5.425,-1.45 l 11.875,-11.875 c -0.2993,-1.1412 -0.2359,-2.3768 0.25,-3.55 0.4971,-1.20008 1.3498,-2.13136 2.4,-2.72504 v -54.27496 c -1.082,-0.62512 -1.9308,-1.60336 -2.4,-2.77496 -0.5232,-1.1764 -0.6027,-2.49496 -0.275,-3.72504 l -8.975,-8.97496 c -0.4909,0.14072 -1.014,0.22496 -1.55,0.22496 -2.3567,0 -4.3739,-1.46232 -5.2,-3.52496 -0.9145,-2.05656 -0.5358,-4.53928 1.15,-6.22504 0.3736,-0.3736 0.8105,-0.67912 1.25,-0.92504 v -54.07496 c -1.6758,-0.96808 -2.8,-2.7768 -2.8,-4.85 0,-3.0912 2.5088,-5.6 5.6,-5.6 3.0912,0 5.6,2.5088 5.6,5.6 0,2.0608 -1.1157,3.85264 -2.775,4.82496 v 54.2 c 0.3742,0.22776 0.7266,0.50168 1.05,0.82504 0.4434,0.44336 0.7865,0.94232 1.05,1.47496 0.022,0.0413 0.054,0.0832 0.075,0.12504 0.038,0.0814 0.066,0.16728 0.1,0.25 0.3193,0.70408 0.5,1.47696 0.5,2.3 0,0.47872 -0.062,0.93136 -0.175,1.37504 l 9.025,9.02496 c 1.874,-0.50808 3.9545,-0.0205 5.425,1.45 0.4434,0.44336 0.7865,0.94232 1.05,1.47496 0.022,0.0413 0.054,0.0832 0.075,0.12504 0.038,0.0814 0.066,0.16728 0.1,0.25 0.3193,0.70408 0.5,1.47696 0.5,2.3 0,2.0608 -1.1157,3.85264 -2.775,4.82496 v 54.35008 c 2.3527,1.39872 3.3779,4.34752 2.3,6.94992 -1.0956,2.6448 -3.9852,4.00296 -6.675,3.25008 l -11.85,11.84996 c 0.4977,1.86792 0.039,3.96066 -1.425,5.425 -1.0929,1.0929 -2.5416,1.625 -3.975,1.625 z"
               id="path754"
               style="fill:#00ced1;stroke:#daa520" />
            <path
               d="m 2454.1,-520.5 c -3.0912,0 -5.6,-2.5088 -5.6,-5.6 0,-3.0912 2.5088,-5.6 5.6,-5.6 2.0663,0 3.8795,1.1334 4.85,2.8 h 23.425 c 0.9705,-1.6666 2.7837,-2.8 4.85,-2.8 3.0912,0 5.6,2.5087 5.6,5.6 0,3.0913 -2.5088,5.5999 -5.6,5.6 -2.0592,0 -3.8521,-1.1179 -4.825,-2.775 h -23.475 c -0.9729,1.6571 -2.7658,2.775 -4.825,2.775 z"
               id="path756"
               style="fill:#00ced1;stroke:#daa520" />
            <path
               d="m 2455.3,-568.38 c -3.0912,0 -5.6,-2.5088 -5.6,-5.6 0,-2.0718 1.1261,-3.8814 2.8,-4.85 v -54.3 c -1.6758,-0.96808 -2.8,-2.7768 -2.8,-4.85 0,-3.0912 2.5088,-5.6 5.6,-5.6 3.0912,0 5.6,2.5088 5.6,5.6 0,2.0608 -1.1157,3.8526 -2.775,4.825 v 54.35 c 1.6571,0.9728 2.775,2.7658 2.775,4.825 0,3.0912 -2.5088,5.6 -5.6,5.6 z"
               id="path758"
               style="fill:#00ced1;stroke:#daa520" />
            <path
               d="m 2503.3,-568.38 c -3.0912,0 -5.6,-2.5088 -5.6,-5.6 0,-2.0718 1.1261,-3.8814 2.8,-4.85 v -86.3 c -1.6758,-0.96808 -2.8,-2.7768 -2.8,-4.85 0,-3.0912 2.5088,-5.6 5.6,-5.6 3.0912,0 5.6,2.5088 5.6,5.6 0,2.0608 -1.1157,3.8526 -2.775,4.825 v 86.35 c 1.6571,0.9728 2.775,2.7658 2.775,4.825 0,3.0912 -2.5088,5.6 -5.6,5.6 z"
               id="path760"
               style="fill:#00ced1;stroke:#daa520" />
            <path
               d="m 2615.3,-568.38 c -3.0912,0 -5.6,-2.5088 -5.6,-5.6 0,-2.0592 1.1179,-3.8522 2.775,-4.825 v -102.35 c -1.6593,-0.97232 -2.775,-2.7642 -2.775,-4.825 0,-3.0912 2.5088,-5.6 5.6,-5.6 3.0912,0 5.6,2.5088 5.6,5.6 0,2.0732 -1.1242,3.8819 -2.8,4.85 v 102.3 c 1.6739,0.96856 2.8,2.7782 2.8,4.85 0,3.0912 -2.5088,5.6 -5.6,5.6 z"
               id="path762"
               style="fill:#00ced1;stroke:#daa520" />
            <path
               d="m 2487.1836,-568.50103 c -3.0912,0 -5.6,-2.5088 -5.6,-5.6 0,-2.11288 1.1711,-3.94648 2.9,-4.9 v -54.12504 c -1.6758,-0.96808 -2.8,-2.7768 -2.8,-4.85 0,-0.0335 -6e-4,-0.0666 0,-0.1 -9e-4,-0.0417 0,-0.083 0,-0.12496 0,-0.11664 0.013,-0.23536 0.025,-0.35008 0.022,-0.35048 0.067,-0.6948 0.15,-1.02496 l -25.05,-25.05 c -1.8679,0.49768 -3.9357,0.0394 -5.4,-1.42504 -2.1858,-2.18576 -2.1858,-5.73912 0,-7.92496 2.1858,-2.18584 5.7392,-2.18584 7.925,0 1.4705,1.47048 1.933,3.55104 1.425,5.42496 l 24.975,24.97504 c 0.4967,-0.14448 1.0069,-0.22496 1.55,-0.22496 2.2218,0 4.1452,1.29816 5.05,3.17496 0.044,0.0828 0.086,0.1656 0.125,0.25 0.071,0.16744 0.1204,0.32472 0.175,0.5 0.6947,1.97024 0.2749,4.25008 -1.3,5.82496 -0.1366,0.13664 -0.2784,0.25552 -0.425,0.37504 -0.013,0.0113 -0.037,0.0138 -0.05,0.025 -0.2416,0.1932 -0.4867,0.37776 -0.75,0.52504 v 54.27496 c 1.596,0.98704 2.675,2.73696 2.675,4.75008 0,3.09112 -2.5088,5.6 -5.6,5.6 z"
               id="path764"
               style="stroke:#daa520;fill:#00ced1" />
            <path
               d="m 2583.3,-600.38 c -3.0912,0 -5.6,-2.5088 -5.6,-5.6 0,-2.0718 1.1261,-3.8814 2.8,-4.85 v -70.3 c -1.6758,-0.96808 -2.8,-2.7768 -2.8,-4.85 0,-3.0912 2.5088,-5.6 5.6,-5.6 3.0912,0 5.6,2.5088 5.6,5.6 0,2.0608 -1.1157,3.8526 -2.775,4.825 v 70.35 c 1.6571,0.9728 2.775,2.7658 2.775,4.825 0,3.0912 -2.5088,5.6 -5.6,5.6 z"
               id="path766"
               style="fill:#00ced1;stroke:#daa520" />
            <path
               d="m 2663.3,-616.6 c -3.0912,0 -5.6,-2.5089 -5.6,-5.6 0,-2.0593 1.1179,-3.8522 2.775,-4.825 v -54.35 c -1.6571,-0.97288 -2.775,-2.7658 -2.775,-4.825 0,-3.0912 2.5088,-5.6 5.6,-5.6 3.0912,0 5.6,2.5087 5.6,5.6 0,2.0718 -1.1261,3.8814 -2.8,4.8499 v 54.3 c 1.6739,0.96864 2.8,2.7782 2.8,4.8501 0,3.0912 -2.5088,5.6 -5.6,5.6 z"
               id="path768"
               style="fill:#00ced1;stroke:#daa520" />
            <path
               d="m 2711.3,-616.6 c -3.0912,0 -5.6,-2.5089 -5.6,-5.6 0,-2.0593 1.1179,-3.8522 2.775,-4.825 v -38.35 c -1.6571,-0.97288 -2.775,-2.7658 -2.775,-4.825 0,-3.0912 2.5088,-5.6 5.6,-5.6 3.0912,0 5.6,2.5087 5.6,5.6 0,2.0718 -1.1261,3.8814 -2.8,4.8499 v 38.3 c 1.6739,0.96864 2.8,2.7782 2.8,4.8501 0,3.0912 -2.5088,5.6 -5.6,5.6 z"
               id="path770"
               style="fill:#00ced1;stroke:#daa520" />
          </g>
        </g>
        <g
           transform="translate(-1.4382)"
           stroke="#feb98a"
           stroke-linecap="round"
           stroke-linejoin="round"
           stroke-width="21.738"
           id="g780" />
      </g>
    </g>
  </g>
</svg>
